# xmcd
#
# Track frame offsets:
#	150
#	15733
#	28635
#	43624
#	57226
#	72914
#	85343
#	101658
#	117231
#	132043
#	149278
#	169582
#	184054
#	199785
#
# Disc length: 2886 seconds
#
# Revision: 0
# Processed by: cddbd v1.5.2PL0 Copyright (c) Steve Scherf et al.
# Submitted via: EasyCDDAExtractor 11.5.3.1
#
DISCID=be0b440e
DTITLE=Various Artist - Mr Music Country 09 2008
DYEAR=1900
DGENRE=Country
TTITLE0=Mark Chesnutt - Long way to go
TTITLE1=Miss Leslie - I can still feel
TTITLE2=Darrell McCall and Willie Nelson - Lilly Dale
TTITLE3=Joe Bonson - Country roots
TTITLE4=Angel Band - I'm coming home to you
TTITLE5=Curtis Potter - I'm not crazy yet
TTITLE6=Peter Cooper - Andalusia
TTITLE7=T. Jae Christian - I'm tired of being something
TTITLE8=Crystal Sands - Crazy that way
TTITLE9=Jason Boland and The Stragglers - Drinkin' song
TTITLE10=Aaron Russell - Momma
TTITLE11=Mary Lee and T. Jae Christian - Rivers of life
TTITLE12=Steep Canyon Rangers - Yesterday's blues
TTITLE13=Memarie - What if he's right
EXTD=
EXTT0=
EXTT1=
EXTT2=
EXTT3=
EXTT4=
EXTT5=
EXTT6=
EXTT7=
EXTT8=
EXTT9=
EXTT10=
EXTT11=
EXTT12=
EXTT13=
PLAYORDER=
